<svg preserveAspectRatio="none" width="40" height="40" viewBox="0 0 40 40" fill="none" xmlns="http://www.w3.org/2000/svg">
<path d="M40 20C40 31.0457 31.0457 40 20 40M40 20C40 8.9543 31.0457 0 20 0M40 20H0M20 40C8.9543 40 0 31.0457 0 20M20 40C25.0026 34.5233 27.8455 27.4159 28 20C27.8455 12.5841 25.0026 5.47671 20 0M20 40C14.9974 34.5233 12.1545 27.4159 12 20C12.1545 12.5841 14.9974 5.47671 20 0M0 20C0 8.9543 8.9543 0 20 0" stroke="#1E1E1E" stroke-width="4" stroke-linecap="round" stroke-linejoin="round"/>
</svg>
