<svg preserveAspectRatio="none" width="40" height="40" viewBox="0 0 40 40" fill="none" xmlns="http://www.w3.org/2000/svg">
<path d="M40 29.84V35.84C40.0023 36.397 39.8882 36.9483 39.665 37.4587C39.4419 37.9691 39.1146 38.4272 38.7042 38.8037C38.2937 39.1803 37.8091 39.467 37.2815 39.6454C36.7538 39.8239 36.1947 39.8901 35.64 39.84C29.4857 39.1713 23.574 37.0683 18.38 33.7C13.5477 30.6293 9.45067 26.5323 6.38 21.7C2.99996 16.4824 0.896486 10.542 0.24 4.36C0.190021 3.80693 0.25575 3.24952 0.433001 2.72325C0.610252 2.19698 0.895141 1.71338 1.26953 1.30324C1.64392 0.893106 2.09961 0.565419 2.60758 0.341044C3.11555 0.116669 3.66468 0.000523029 4.22 7.04022e-08H10.22C11.1906 -0.00955282 12.1316 0.334157 12.8675 0.967065C13.6035 1.59997 14.0842 2.47889 14.22 3.44C14.4732 5.36013 14.9429 7.24545 15.62 9.06C15.8891 9.77585 15.9473 10.5538 15.7878 11.3018C15.6283 12.0497 15.2577 12.7362 14.72 13.28L12.18 15.82C15.0271 20.8271 19.1729 24.9729 24.18 27.82L26.72 25.28C27.2638 24.7423 27.9503 24.3717 28.6982 24.2122C29.4462 24.0527 30.2242 24.1109 30.94 24.38C32.7545 25.0571 34.6399 25.5268 36.56 25.78C37.5315 25.9171 38.4188 26.4064 39.0531 27.155C39.6873 27.9036 40.0243 28.8592 40 29.84Z" stroke="#1E1E1E" stroke-width="4" stroke-linecap="round" stroke-linejoin="round"/>
</svg>
